<?xml version="1.0" standalone="no"?>
<!DOCTYPE svg PUBLIC "-//W3C//DTD SVG 1.1//EN" "http://www.w3.org/Graphics/SVG/1.1/DTD/svg11.dtd">
<svg style="top: 22px; left: -1px; overflow: hidden; visibility: inherit;" version="1.1" viewBox="0 0 150 100" xmlns="http://www.w3.org/2000/svg">
<path stroke="transparent" x="1px" y="1px" fill="rgba(15, 118, 199, 0.2)" d="M-17.5,83.4565303179429 L-15,79.38926261462365 L-12.5,75 L-10,70.33683215379 L-7.5,65.4508497187474 L-5,60.395584540887945 L-2.5,55.22642316338265 L0,50 L2.5,44.773576836617345 L5,39.604415459112055 L7.5,34.54915028125265 L10,29.66316784621 L12.5,25 L15,20.610737385376353 L17.5,16.543469682057093 L20,12.842758726130299 L22.5,9.54915028125265 L25,6.6987298107780475 L27.5,4.322727117869945 L30,2.4471741852422895 L32.5,1.0926199633096871 L35,0.2739052315863404 L37.5,0 L40,0.2739052315863404 L42.5,1.0926199633096871 L45,2.4471741852422895 L47.5,4.322727117869945 L50,6.6987298107780475 L52.5,9.54915028125265 L55,12.842758726130299 L57.5,16.543469682057093 L60,20.610737385376353 L62.5,25 L65,29.66316784621 L67.5,34.54915028125261 L70,39.604415459112055 L72.5,44.773576836617345 L75,49.999999999999964 L77.5,55.22642316338265 L80,60.395584540887945 L82.5,65.45084971874735 L85,70.33683215379 L87.5,75 L90,79.38926261462365 L92.5,83.4565303179429 L95,87.1572412738697 L97.5,90.45084971874735 L100,93.3012701892219 L102.5,95.67727288213005 L105,97.5528258147577 L107.5,98.9073800366903 L110,99.72609476841365 L112.5,100 L115,99.72609476841365 L117.5,98.9073800366903 L120,97.5528258147577 L122.5,95.67727288213005 L125,93.30127018922195 L127.5,90.4508497187474 L130,87.1572412738697 L132.5,83.4565303179429 L135,79.38926261462365 L137.5,75 L140,70.33683215379 L142.5,65.4508497187474 L145,60.395584540887945 L147.5,55.22642316338265 L150,55.22642316338265 L150,100 L-17.5,100"></path>
<path fill="transparent" style="stroke-width: 2; stroke: rgb(15, 118, 199);" x="1px" y="1px" d="M-17.5,83.4565303179429 L-15,79.38926261462365 L-12.5,75 L-10,70.33683215379 L-7.5,65.4508497187474 L-5,60.395584540887945 L-2.5,55.22642316338265 L0,50 L2.5,44.773576836617345 L5,39.604415459112055 L7.5,34.54915028125265 L10,29.66316784621 L12.5,25 L15,20.610737385376353 L17.5,16.543469682057093 L20,12.842758726130299 L22.5,9.54915028125265 L25,6.6987298107780475 L27.5,4.322727117869945 L30,2.4471741852422895 L32.5,1.0926199633096871 L35,0.2739052315863404 L37.5,0 L40,0.2739052315863404 L42.5,1.0926199633096871 L45,2.4471741852422895 L47.5,4.322727117869945 L50,6.6987298107780475 L52.5,9.54915028125265 L55,12.842758726130299 L57.5,16.543469682057093 L60,20.610737385376353 L62.5,25 L65,29.66316784621 L67.5,34.54915028125261 L70,39.604415459112055 L72.5,44.773576836617345 L75,49.999999999999964 L77.5,55.22642316338265 L80,60.395584540887945 L82.5,65.45084971874735 L85,70.33683215379 L87.5,75 L90,79.38926261462365 L92.5,83.4565303179429 L95,87.1572412738697 L97.5,90.45084971874735 L100,93.3012701892219 L102.5,95.67727288213005 L105,97.5528258147577 L107.5,98.9073800366903 L110,99.72609476841365 L112.5,100 L115,99.72609476841365 L117.5,98.9073800366903 L120,97.5528258147577 L122.5,95.67727288213005 L125,93.30127018922195 L127.5,90.4508497187474 L130,87.1572412738697 L132.5,83.4565303179429 L135,79.38926261462365 L137.5,75 L140,70.33683215379 L142.5,65.4508497187474 L145,60.395584540887945 L147.5,55.22642316338265 L150,55.22642316338265"></path>
</svg>